<svg width="40" height="40" viewBox="0 0 40 40" fill="none" xmlns="http://www.w3.org/2000/svg">
<g clip-path="url(#clip0_1074_519)">
<rect width="40" height="40" rx="12" fill="url(#paint0_radial_1074_519)"/>
<path d="M9 8C9 6.89543 9.89543 6 11 6C12.1046 6 13 6.89543 13 8V32C13 33.1046 12.1046 34 11 34C9.89543 34 9 33.1046 9 32V8Z" fill="url(#paint1_radial_1074_519)"/>
<path d="M18 8C18 6.89543 18.8954 6 20 6C21.1046 6 22 6.89543 22 8V32C22 33.1046 21.1046 34 20 34C18.8954 34 18 33.1046 18 32V8Z" fill="url(#paint2_radial_1074_519)"/>
<path d="M27 8C27 6.89543 27.8954 6 29 6C30.1046 6 31 6.89543 31 8V32C31 33.1046 30.1046 34 29 34C27.8954 34 27 33.1046 27 32V8Z" fill="url(#paint3_radial_1074_519)"/>
<g style="mix-blend-mode:multiply" opacity="0.5" filter="url(#filter0_f_1074_519)">
<circle cx="19" cy="11" r="3" fill="#9C2F10"/>
</g>
<g style="mix-blend-mode:multiply" opacity="0.5" filter="url(#filter1_f_1074_519)">
<circle cx="28" cy="11" r="3" fill="#9C2F10"/>
</g>
<g style="mix-blend-mode:multiply" opacity="0.5" filter="url(#filter2_f_1074_519)">
<circle cx="19" cy="33" r="3" fill="#9C2F10"/>
</g>
<g style="mix-blend-mode:multiply" opacity="0.5" filter="url(#filter3_f_1074_519)">
<circle cx="28" cy="33" r="3" fill="#9C2F10"/>
</g>
<g style="mix-blend-mode:multiply" opacity="0.5" filter="url(#filter4_f_1074_519)">
<circle cx="9.5" cy="21.5" r="4.5" fill="#9C2F10"/>
</g>
<circle cx="20" cy="9" r="3" fill="url(#paint4_linear_1074_519)"/>
<circle cx="29" cy="9" r="3" fill="url(#paint5_linear_1074_519)"/>
<circle cx="11" cy="20" r="4" fill="url(#paint6_linear_1074_519)"/>
<circle cx="20" cy="32" r="3" fill="url(#paint7_linear_1074_519)"/>
<circle cx="29" cy="32" r="3" fill="url(#paint8_linear_1074_519)"/>
</g>
<defs>
<filter id="filter0_f_1074_519" x="11" y="3" width="16" height="16" filterUnits="userSpaceOnUse" color-interpolation-filters="sRGB">
<feFlood flood-opacity="0" result="BackgroundImageFix"/>
<feBlend mode="normal" in="SourceGraphic" in2="BackgroundImageFix" result="shape"/>
<feGaussianBlur stdDeviation="2.5" result="effect1_foregroundBlur_1074_519"/>
</filter>
<filter id="filter1_f_1074_519" x="20" y="3" width="16" height="16" filterUnits="userSpaceOnUse" color-interpolation-filters="sRGB">
<feFlood flood-opacity="0" result="BackgroundImageFix"/>
<feBlend mode="normal" in="SourceGraphic" in2="BackgroundImageFix" result="shape"/>
<feGaussianBlur stdDeviation="2.5" result="effect1_foregroundBlur_1074_519"/>
</filter>
<filter id="filter2_f_1074_519" x="11" y="25" width="16" height="16" filterUnits="userSpaceOnUse" color-interpolation-filters="sRGB">
<feFlood flood-opacity="0" result="BackgroundImageFix"/>
<feBlend mode="normal" in="SourceGraphic" in2="BackgroundImageFix" result="shape"/>
<feGaussianBlur stdDeviation="2.5" result="effect1_foregroundBlur_1074_519"/>
</filter>
<filter id="filter3_f_1074_519" x="20" y="25" width="16" height="16" filterUnits="userSpaceOnUse" color-interpolation-filters="sRGB">
<feFlood flood-opacity="0" result="BackgroundImageFix"/>
<feBlend mode="normal" in="SourceGraphic" in2="BackgroundImageFix" result="shape"/>
<feGaussianBlur stdDeviation="2.5" result="effect1_foregroundBlur_1074_519"/>
</filter>
<filter id="filter4_f_1074_519" x="0" y="12" width="19" height="19" filterUnits="userSpaceOnUse" color-interpolation-filters="sRGB">
<feFlood flood-opacity="0" result="BackgroundImageFix"/>
<feBlend mode="normal" in="SourceGraphic" in2="BackgroundImageFix" result="shape"/>
<feGaussianBlur stdDeviation="2.5" result="effect1_foregroundBlur_1074_519"/>
</filter>
<radialGradient id="paint0_radial_1074_519" cx="0" cy="0" r="1" gradientUnits="userSpaceOnUse" gradientTransform="translate(40 -3.66429e-06) rotate(90) scale(40 39.0913)">
<stop stop-color="#FFC55B"/>
<stop offset="1" stop-color="#FD8237"/>
</radialGradient>
<radialGradient id="paint1_radial_1074_519" cx="0" cy="0" r="1" gradientUnits="userSpaceOnUse" gradientTransform="translate(31 6) rotate(128.157) scale(35.609 34.598)">
<stop stop-color="#FD8237"/>
<stop offset="1" stop-color="#9C2F10"/>
</radialGradient>
<radialGradient id="paint2_radial_1074_519" cx="0" cy="0" r="1" gradientUnits="userSpaceOnUse" gradientTransform="translate(31 6) rotate(128.157) scale(35.609 34.598)">
<stop stop-color="#FD8237"/>
<stop offset="1" stop-color="#9C2F10"/>
</radialGradient>
<radialGradient id="paint3_radial_1074_519" cx="0" cy="0" r="1" gradientUnits="userSpaceOnUse" gradientTransform="translate(31 6) rotate(128.157) scale(35.609 34.598)">
<stop stop-color="#FD8237"/>
<stop offset="1" stop-color="#9C2F10"/>
</radialGradient>
<linearGradient id="paint4_linear_1074_519" x1="14" y1="13.5" x2="23" y2="4.53409" gradientUnits="userSpaceOnUse">
<stop stop-color="#FFC55B"/>
<stop offset="0.5" stop-color="#FFF6D3"/>
<stop offset="1" stop-color="#FFFBEB"/>
</linearGradient>
<linearGradient id="paint5_linear_1074_519" x1="23" y1="13.5" x2="32" y2="4.53409" gradientUnits="userSpaceOnUse">
<stop stop-color="#FFC55B"/>
<stop offset="0.5" stop-color="#FFF6D3"/>
<stop offset="1" stop-color="#FFFBEB"/>
</linearGradient>
<linearGradient id="paint6_linear_1074_519" x1="3" y1="26" x2="15" y2="14.0455" gradientUnits="userSpaceOnUse">
<stop stop-color="#FFC55B"/>
<stop offset="0.5" stop-color="#FFF6D3"/>
<stop offset="1" stop-color="#FFFBEB"/>
</linearGradient>
<linearGradient id="paint7_linear_1074_519" x1="14" y1="36.5" x2="23" y2="27.5341" gradientUnits="userSpaceOnUse">
<stop stop-color="#FFC55B"/>
<stop offset="0.5" stop-color="#FFF6D3"/>
<stop offset="1" stop-color="#FFFBEB"/>
</linearGradient>
<linearGradient id="paint8_linear_1074_519" x1="23" y1="36.5" x2="32" y2="27.5341" gradientUnits="userSpaceOnUse">
<stop stop-color="#FFC55B"/>
<stop offset="0.5" stop-color="#FFF6D3"/>
<stop offset="1" stop-color="#FFFBEB"/>
</linearGradient>
<clipPath id="clip0_1074_519">
<rect width="40" height="40" rx="12" fill="white"/>
</clipPath>
</defs>
</svg>
